<?xml version="1.0" encoding="UTF-8" standalone="no"?>
<svg
   xmlns="http://www.w3.org/2000/svg"
   viewBox="0 0 150 150">
  <rect
     style="opacity:1;color:#000000;fill:#ffffff;fill-opacity:1;fill-rule:evenodd;stroke:none;stroke-width:1;stroke-linecap:butt;stroke-linejoin:miter;marker:none;marker-start:none;marker-mid:none;marker-end:none;stroke-miterlimit:4;stroke-dasharray:none;stroke-dashoffset:0;stroke-opacity:1;visibility:visible;display:inline;overflow:visible;enable-background:accumulate"
     width="150"
     height="150"
     x="0"
     y="0"
     rx="0"
     ry="0" />
  <path
     d="M 2.33,148.81 C 2.44,140.73 2.52,137.32 2.28,126.85 C 7.55,120.26 26.09,117.23 31.15,115.42 C 37.69,110.54 45.09,106.39 51.48,102.72 C 55.00,100.69 55.05,93.73 54.79,89.06 C 53.62,82.44 53.00,76.73 48.28,71.87 C 48.01,70.49 47.24,67.30 44.92,63.15 C 43.36,56.16 37.21,47.50 38.75,43.06 C 42.87,31.24 39.27,26.43 41.80,25.42 C 47.56,23.12 49.12,18.08 54.40,13.02 C 69.83,10.08 67.46,2.25 78.99,3.76 C 93.28,5.64 85.41,7.75 95.21,12.73 C 107.25,18.85 100.07,19.47 111.06,35.67 C 117.59,45.28 104.88,45.94 108.17,54.45 C 111.21,62.31 104.04,63.65 100.42,72.26 C 96.95,80.51 94.77,82.94 98.77,93.82 C 102.48,103.92 108.64,99.31 122.57,114.44 C 126.10,118.28 138.80,113.63 147.54,124.85 C 147.54,130.61 147.67,136.74 147.71,148.99 C 108.51,148.85 2.33,148.81 2.33,148.81 z"
     style="fill:#6d6d6d;fill-opacity:1;fill-rule:evenodd;stroke:#6d6d6d;stroke-width:2;stroke-linecap:round;stroke-linejoin:round;stroke-miterlimit:4;stroke-dasharray:none;stroke-opacity:0.5"
     />
  <text>
       <tspan
       style="font-size:16px;font-style:normal;font-variant:normal;font-weight:normal;font-stretch:normal;text-align:center;line-height:130%;writing-mode:lr-tb;text-anchor:middle;fill:#ffffff;fill-opacity:1;font-family:Sans"
       y="39"
       x="75">No</tspan><tspan
       style="font-size:16px;font-style:normal;font-variant:normal;font-weight:normal;font-stretch:normal;text-align:center;line-height:130%;writing-mode:lr-tb;text-anchor:middle;fill:#ffffff;fill-opacity:1;font-family:Sans"
       y="57"
       x="75">photo</tspan></text>
</svg>
