<?xml version="1.0" encoding="UTF-8" standalone="no"?>
<svg
   xmlns="http://www.w3.org/2000/svg"
   viewBox="0 0 150 150">
  <rect
     style="color:#000000;fill:#ffffff;fill-opacity:1;fill-rule:evenodd;stroke:none;stroke-width:1;stroke-linecap:butt;stroke-linejoin:miter;marker:none;marker-start:none;marker-mid:none;marker-end:none;stroke-miterlimit:4;stroke-dasharray:none;stroke-dashoffset:0;stroke-opacity:1;visibility:visible;display:inline;overflow:visible;enable-background:accumulate"
     width="150"
     height="150"
     x="0"
     y="0"
     rx="0"
     ry="0" />
  <path
     d="M 90.16,3.98 C 95.30,7.09 99.65,8.07 104.85,19.32 C 112.41,35.68 112.33,39.34 115.50,33.64 C 114.89,35.12 114.33,36.58 114.77,37.67 C 115.40,38.33 116.03,38.08 116.67,37.67 C 116.29,38.21 116.80,40.35 117.69,38.71 C 118.32,37.54 118.27,37.52 118.27,37.52 C 118.71,38.55 118.48,39.82 118.56,40.20 C 119.44,41.30 120.31,39.43 121.19,37.52 C 121.38,39.12 121.25,40.88 120.02,42.59 C 122.93,43.82 122.99,40.28 122.35,37.81 C 123.32,39.40 124.09,41.17 123.52,44.23 C 123.86,44.83 124.20,43.49 124.54,43.03 C 124.44,43.92 124.54,45.50 123.74,45.76 C 124.26,45.94 124.92,46.48 125.89,45.38 C 125.99,48.06 125.21,49.88 121.55,49.11 C 122.64,49.84 122.82,54.97 124.83,51.24 C 125.56,52.35 124.30,53.09 123.70,55.37 C 123.35,60.72 119.95,60.02 118.01,62.23 C 117.52,64.63 117.10,65.31 116.35,67.08 C 115.87,68.21 119.24,70.72 119.37,65.84 C 119.92,70.75 115.67,68.90 114.17,71.22 C 113.63,71.75 113.03,72.17 112.36,72.45 C 107.80,75.27 105.30,82.92 103.32,83.86 C 102.65,84.55 98.40,84.47 96.17,84.08 C 95.05,86.80 94.17,88.14 92.56,89.60 C 90.79,93.47 89.39,102.45 94.86,106.90 C 103.93,114.29 106.70,116.47 118.31,118.94 C 144.04,124.43 141.64,138.15 146.52,149.22 L 4.26,149.10 C 8.47,138.65 6.50,124.78 32.40,118.38 C 41.80,116.06 45.66,113.88 53.58,107.01 C 58.52,102.73 57.52,93.99 56.43,89.26 C 52.49,88.83 50.45,87.74 49.72,86.21 C 47.83,86.21 45.78,86.55 45.78,82.52 C 40.67,84.91 38.36,80.90 36.01,77.00 C 33.67,75.83 30.78,76.28 29.99,70.66 L 29.33,68.83 C 28.25,67.29 28.75,65.13 28.86,63.13 C 29.55,64.19 29.95,64.45 30.65,64.84 C 25.45,58.57 28.55,54.74 27.84,49.78 C 29.12,50.50 30.19,50.14 31.27,49.52 L 29.00,49.00 C 29.00,49.00 38.37,48.82 33.38,48.25 C 29.53,47.81 29.73,45.61 29.73,45.61 C 30.85,46.24 31.86,47.10 32.98,46.09 C 32.97,44.76 33.37,43.68 34.62,43.15 C 33.04,40.78 35.60,34.97 34.40,32.37 C 35.11,32.88 35.59,34.06 36.84,33.00 C 37.64,30.86 38.07,30.09 39.25,29.72 C 39.96,27.58 41.03,26.07 42.72,25.62 C 42.72,25.62 44.91,18.54 46.43,16.04 C 50.14,9.95 51.72,8.64 58.72,4.17 C 65.61,-0.22 70.98,-0.47 74.44,1.30 C 76.41,2.31 77.70,2.45 78.60,2.45 C 81.17,2.45 83.15,-0.24 90.16,3.98 z"
     style="fill:#6d6d6d;fill-rule:evenodd;stroke:#6d6d6d;stroke-width:2;stroke-linecap:butt;stroke-linejoin:miter;stroke-opacity:0.5;fill-opacity:1;stroke-miterlimit:4;stroke-dasharray:none"
     />
  <text>
       <tspan
       style="font-size:16px;font-style:normal;font-variant:normal;font-weight:normal;font-stretch:normal;text-align:center;line-height:130%;writing-mode:lr-tb;text-anchor:middle;fill:#ffffff;fill-opacity:1;font-family:Sans"
       y="46"
       x="75">No</tspan><tspan
       style="font-size:16px;font-style:normal;font-variant:normal;font-weight:normal;font-stretch:normal;text-align:center;line-height:130%;writing-mode:lr-tb;text-anchor:middle;fill:#ffffff;fill-opacity:1;font-family:Sans"
       y="64"
       x="75">photo</tspan></text>
</svg>
